<svg xmlns="http://www.w3.org/2000/svg" width="66" height="72" fill="none" xmlns:v="https://vecta.io/nano"><path d="M32.977 0c-11.309 0-20.5 9.097-20.5 20.288s9.192 20.288 20.5 20.288 20.5-9.097 20.5-20.288S44.286 0 32.977 0zm0 33.533c-7.388 0-13.397-5.947-13.397-13.258S25.604 7.03 32.977 7.03s13.397 5.947 13.397 13.258-6.01 13.244-13.397 13.244z" fill="url(#A)"/><path d="M65.653 59.698c-1.847-6.735-5.711-12.654-11.181-17.097-1.52-1.237-3.751-1.012-5.001.478-1.25 1.504-1.023 3.712.483 4.949 4.319 3.529 7.387 8.197 8.837 13.511.298 1.111-.17 1.926-.469 2.334-.54.689-1.35 1.097-2.23 1.097-1.96 0-3.552 1.575-3.552 3.515S54.131 72 56.092 72c3.111 0 5.981-1.406 7.871-3.852 1.875-2.432 2.5-5.511 1.691-8.45z" fill="url(#A)"/><path d="M43.334 64.956H9.877c-1.193 0-1.889-.675-2.202-1.083-.54-.703-.71-1.589-.469-2.432 1.463-5.258 4.504-9.898 8.78-13.385 1.506-1.237 1.733-3.445.483-4.949a3.57 3.57 0 0 0-5.001-.478C6.056 47.058 2.206 52.907.359 59.585a9.7 9.7 0 0 0 1.676 8.562c1.861 2.432 4.731 3.838 7.842 3.838h33.457c1.961 0 3.552-1.575 3.552-3.515s-1.591-3.515-3.552-3.515z" fill="url(#A)"/><defs><linearGradient id="A" x1="17.346" y1="0" x2="95.439" y2="87.017" gradientUnits="userSpaceOnUse"><stop stop-color="#e45252"/><stop offset="1" stop-color="#ff9f46"/></linearGradient></defs></svg>